<svg xmlns="http://www.w3.org/2000/svg" viewBox="0 0 500.18 234.95"><defs><style>.cls-1{fill:#a7c059;}</style></defs><title>logo</title><g id="Layer_2" data-name="Layer 2"><g id="Layer_1-2" data-name="Layer 1"><path class="cls-1" d="M480.59,234.95H350.07a19.57,19.57,0,0,1-13.7-5.57l-100-97.91a19.55,19.55,0,0,1,0-28l100-97.9A19.62,19.62,0,0,1,350.07,0H480.59a19.59,19.59,0,0,1,19.59,19.58V215.38A19.57,19.57,0,0,1,480.59,234.95ZM358.06,195.8H461V39.17h-103l-80,78.31Z"/><path class="cls-1" d="M150.11,234.95H19.58A19.58,19.58,0,0,1,0,215.38V19.58A19.59,19.59,0,0,1,19.58,0H150.11a19.54,19.54,0,0,1,13.68,5.59l100,97.9a19.55,19.55,0,0,1,0,28l-100,97.91A19.48,19.48,0,0,1,150.11,234.95ZM39.17,195.8H142.11l80-78.32-80-78.31H39.17Z"/></g></g></svg>